<svg xmlns="http://www.w3.org/2000/svg" xmlns:xlink="http://www.w3.org/1999/xlink" viewBox="0 0 855.25 457.49"><defs><image id="image" width="2500" height="2500" xlink:href="../../../snowflakes_PNG7578.png"/></defs><title>Asset 8</title><g id="Layer_2" data-name="Layer 2"><g id="Layer_1-2" data-name="Layer 1"><use transform="translate(0 79.99) scale(0.02)" xlink:href="#image"/><use transform="translate(306.01 162.5) scale(0.02)" xlink:href="#image"/><use transform="translate(57.01 322.99) scale(0.02)" xlink:href="#image"/><use transform="translate(253.01 31) scale(0.02)" xlink:href="#image"/><use transform="translate(185.01 249.5) scale(0.02)" xlink:href="#image"/><use transform="translate(68 194.99) scale(0.02)" xlink:href="#image"/><use transform="translate(131 160.99) scale(0.02)" xlink:href="#image"/><use transform="translate(490.25 220.01) scale(0.02)" xlink:href="#image"/><use transform="translate(188.01 403.99) scale(0.02)" xlink:href="#image"/><use transform="translate(315.01 281.99) scale(0.02)" xlink:href="#image"/><use transform="translate(379 398.5) scale(0.02)" xlink:href="#image"/><use transform="translate(205.5 313.49) scale(0.02)" xlink:href="#image"/><use transform="translate(683.01 395.49) scale(0.02)" xlink:href="#image"/><use transform="translate(804.01 137) scale(0.02)" xlink:href="#image"/><use transform="translate(801.75 349.74) scale(0.02)" xlink:href="#image"/><use transform="translate(667.01 0.5) scale(0.02)" xlink:href="#image"/><use transform="translate(814.26 248.5) scale(0.02)" xlink:href="#image"/><use transform="translate(501 14.75) scale(0.02)" xlink:href="#image"/><use transform="translate(348) scale(0.02)" xlink:href="#image"/><use transform="translate(590.51 136.5) scale(0.02)" xlink:href="#image"/><use transform="translate(488 376.49) scale(0.02)" xlink:href="#image"/><use transform="translate(706.5 186.99) scale(0.02)" xlink:href="#image"/><use transform="translate(609.5 355.99) scale(0.02)" xlink:href="#image"/><use transform="translate(390.99 104.5) scale(0.02)" xlink:href="#image"/></g></g></svg>