<svg xmlns="http://www.w3.org/2000/svg" viewBox="0 0 1200 600"><defs><style>.cls-1{fill:#67bfbd;}.cls-2{fill:#684301;}.cls-3{fill:none;}.cls-3,.cls-4,.cls-6,.cls-7,.cls-8{stroke:#000;stroke-miterlimit:10;}.cls-4{fill:#fff;}.cls-5{fill:#aaa;}.cls-6{fill:#544e47;}.cls-7{fill:#d37300;}.cls-8{fill:#94ede5;}</style></defs><title>Asset 6</title><g id="Layer_2" data-name="Layer 2"><g id="Layer_1-2" data-name="Layer 1"><rect class="cls-1" width="1200" height="353"/><rect class="cls-2" y="339" width="1200" height="261"/><line class="cls-3" x1="2.2" y1="493.8" x2="1200" y2="493.8"/><line class="cls-3" x1="2.2" y1="525.8" x2="1200" y2="525.8"/><rect class="cls-4" x="223.87" y="160.85" width="10.85" height="32.35"/><rect class="cls-5" x="69.97" y="262.15" width="192.6" height="212.6"/><path d="M262.07,262.65v211.6H70.47V262.65h191.6m1-1H69.47v213.6h193.6V261.65Z"/><rect class="cls-5" x="476.9" y="261.5" width="192.6" height="212.6"/><path d="M669,262V473.6H477.4V262H669m1-1H476.4V474.6H670V261Z"/><rect class="cls-5" x="887.01" y="261.11" width="192.6" height="212.6"/><path d="M1079.11,261.61v211.6H887.51V261.61h191.6m1-1H886.51v213.6h193.6V260.61Z"/><polygon class="cls-6" points="29.37 261.65 166.27 124.75 303.16 261.65 29.37 261.65"/><rect class="cls-7" x="140.67" y="372.85" width="52" height="102.4"/><rect class="cls-7" x="547.2" y="372.2" width="52" height="102.4"/><rect class="cls-7" x="957.31" y="371.81" width="52" height="102.4"/><line class="cls-3" x1="2.2" y1="467.4" x2="1200" y2="467.4"/><rect class="cls-4" x="67.8" y="435.4" width="25.5" height="134.4"/><rect class="cls-4" x="149.4" y="435.4" width="25.5" height="134.4"/><rect class="cls-4" x="231.1" y="435.4" width="25.5" height="134.4"/><rect class="cls-4" x="307.5" y="435.4" width="25.5" height="134.4"/><rect class="cls-4" x="389.1" y="435.4" width="25.5" height="134.4"/><rect class="cls-4" x="470.8" y="435.4" width="25.5" height="134.4"/><rect class="cls-4" x="563.45" y="435.4" width="25.5" height="134.4"/><rect class="cls-4" x="645.05" y="435.4" width="25.5" height="134.4"/><rect class="cls-4" x="726.75" y="435.4" width="25.5" height="134.4"/><rect class="cls-4" x="821.8" y="435.4" width="25.5" height="134.4"/><rect class="cls-4" x="903.4" y="435.4" width="25.5" height="134.4"/><rect class="cls-4" x="985.1" y="435.4" width="25.5" height="134.4"/><rect class="cls-4" x="1053.1" y="435.4" width="25.5" height="134.4"/><rect class="cls-4" x="1134.7" y="435.4" width="25.5" height="134.4"/><rect class="cls-4" x="2.2" y="435.4" width="25.5" height="134.4"/><rect class="cls-8" x="115.56" y="280.85" width="101.42" height="48.8"/><rect class="cls-8" x="522.49" y="280.2" width="101.42" height="48.8"/><rect class="cls-8" x="932.6" y="283.81" width="101.42" height="48.8"/><line class="cls-3" x1="147.42" y1="143.6" x2="185.63" y2="143.6"/><line class="cls-3" x1="114" y1="177.02" x2="218.54" y2="177.02"/><line class="cls-3" x1="130.17" y1="160.85" x2="202.36" y2="160.85"/><line class="cls-3" x1="97.82" y1="193.2" x2="234.72" y2="193.2"/><line class="cls-3" x1="83.02" y1="208" x2="249" y2="208"/><line class="cls-3" x1="65.82" y1="225.2" x2="266.72" y2="225.2"/><line class="cls-3" x1="51.42" y1="239.6" x2="281.88" y2="239.6"/><line class="cls-3" x1="38.63" y1="249.91" x2="292.19" y2="250.67"/><line class="cls-3" x1="72.07" y1="250.01" x2="72.07" y2="264.31"/><line class="cls-3" x1="147.42" y1="250.24" x2="147.42" y2="261.65"/><line class="cls-3" x1="239.4" y1="250.52" x2="239.4" y2="261.65"/><line class="cls-3" x1="110.4" y1="239.6" x2="110.4" y2="250.01"/><line class="cls-3" x1="64.07" y1="239.6" x2="64.07" y2="249.99"/><line class="cls-3" x1="176.73" y1="239.6" x2="176.73" y2="248.65"/><line class="cls-3" x1="226.07" y1="239.6" x2="226.07" y2="248.65"/><line class="cls-3" x1="276.4" y1="239.6" x2="276.4" y2="250.62"/><line class="cls-3" x1="92.73" y1="225.2" x2="92.73" y2="239.6"/><line class="cls-3" x1="140.67" y1="239.6" x2="140.67" y2="248.65"/><line class="cls-3" x1="137.07" y1="225.2" x2="137.07" y2="239.6"/><line class="cls-3" x1="171.4" y1="225.2" x2="171.4" y2="239.6"/><line class="cls-3" x1="219.73" y1="225.2" x2="219.73" y2="239.6"/><line class="cls-3" x1="262.07" y1="225.2" x2="262.07" y2="239.6"/><line class="cls-3" x1="115.56" y1="208" x2="115.56" y2="225.2"/><line class="cls-3" x1="158.73" y1="208" x2="158.73" y2="225.2"/><line class="cls-3" x1="202.36" y1="208" x2="202.36" y2="225.2"/><line class="cls-3" x1="246.07" y1="208" x2="246.07" y2="225.2"/><line class="cls-3" x1="105.73" y1="193.2" x2="105.73" y2="208"/><line class="cls-3" x1="137.07" y1="193.2" x2="137.07" y2="208"/><line class="cls-3" x1="190.4" y1="193.2" x2="190.4" y2="208"/><line class="cls-3" x1="229.29" y1="193.2" x2="229.29" y2="208"/><line class="cls-3" x1="124.73" y1="177.02" x2="124.73" y2="193.2"/><line class="cls-3" x1="165.47" y1="177.02" x2="165.47" y2="193.2"/><line class="cls-3" x1="207.73" y1="177.02" x2="207.73" y2="193.2"/><line class="cls-3" x1="140.67" y1="160.85" x2="140.67" y2="177.02"/><line class="cls-3" x1="176.73" y1="160.85" x2="176.73" y2="177.02"/><line class="cls-3" x1="156.73" y1="143.6" x2="156.73" y2="160.85"/><line class="cls-3" x1="182.73" y1="143.6" x2="182.73" y2="160.25"/><rect class="cls-4" x="636.13" y="163.6" width="10.85" height="32.35"/><polygon class="cls-6" points="441.64 264.4 578.53 127.5 715.43 264.4 441.64 264.4"/><line class="cls-3" x1="559.68" y1="146.35" x2="597.38" y2="146.35"/><line class="cls-3" x1="526.26" y1="179.78" x2="630.8" y2="179.78"/><line class="cls-3" x1="542.44" y1="163.6" x2="614.63" y2="163.6"/><line class="cls-3" x1="510.08" y1="195.95" x2="646.98" y2="195.95"/><line class="cls-3" x1="495.28" y1="210.75" x2="661.78" y2="210.75"/><line class="cls-3" x1="478.08" y1="227.95" x2="680" y2="227.95"/><line class="cls-3" x1="463.68" y1="242.35" x2="693.38" y2="242.35"/><line class="cls-3" x1="450.9" y1="252.67" x2="704.46" y2="253.43"/><line class="cls-3" x1="484.33" y1="252.77" x2="484.33" y2="267.07"/><line class="cls-3" x1="559.68" y1="252.99" x2="559.68" y2="264.4"/><line class="cls-3" x1="651.67" y1="253.27" x2="651.67" y2="264.4"/><line class="cls-3" x1="522.67" y1="242.35" x2="522.67" y2="252.77"/><line class="cls-3" x1="476.33" y1="242.35" x2="476.33" y2="252.74"/><line class="cls-3" x1="589" y1="242.35" x2="589" y2="251.4"/><line class="cls-3" x1="638.33" y1="242.35" x2="638.33" y2="251.4"/><line class="cls-3" x1="688.67" y1="242.35" x2="688.67" y2="253.37"/><line class="cls-3" x1="505" y1="227.95" x2="505" y2="242.35"/><line class="cls-3" x1="552.93" y1="242.35" x2="552.93" y2="251.4"/><line class="cls-3" x1="549.33" y1="227.95" x2="549.33" y2="242.35"/><line class="cls-3" x1="583.67" y1="227.95" x2="583.67" y2="242.35"/><line class="cls-3" x1="632" y1="227.95" x2="632" y2="242.35"/><line class="cls-3" x1="674.33" y1="227.95" x2="674.33" y2="242.35"/><line class="cls-3" x1="527.82" y1="210.75" x2="527.82" y2="227.95"/><line class="cls-3" x1="571" y1="210.75" x2="571" y2="227.95"/><line class="cls-3" x1="614.63" y1="210.75" x2="614.63" y2="227.95"/><line class="cls-3" x1="658.33" y1="210.75" x2="658.33" y2="227.95"/><line class="cls-3" x1="518" y1="195.95" x2="518" y2="210.75"/><line class="cls-3" x1="549.33" y1="195.95" x2="549.33" y2="210.75"/><line class="cls-3" x1="602.67" y1="195.95" x2="602.67" y2="210.75"/><line class="cls-3" x1="641.56" y1="195.95" x2="641.56" y2="210.75"/><line class="cls-3" x1="537" y1="179.78" x2="537" y2="195.95"/><line class="cls-3" x1="577.73" y1="179.78" x2="577.73" y2="195.95"/><line class="cls-3" x1="620" y1="179.78" x2="620" y2="195.95"/><line class="cls-3" x1="552.93" y1="163.6" x2="552.93" y2="179.78"/><line class="cls-3" x1="589" y1="163.6" x2="589" y2="179.78"/><line class="cls-3" x1="569" y1="146.35" x2="569" y2="163.6"/><line class="cls-3" x1="595" y1="146.35" x2="595" y2="162.07"/><rect class="cls-4" x="1044.99" y="161.88" width="10.85" height="32.35"/><polygon class="cls-6" points="850.49 262.68 987.39 125.78 1124.29 262.68 850.49 262.68"/><line class="cls-3" x1="968.54" y1="144.63" x2="1007.25" y2="144.63"/><line class="cls-3" x1="935.12" y1="178.06" x2="1039.66" y2="178.06"/><line class="cls-3" x1="951.29" y1="161.88" x2="1023.48" y2="161.88"/><line class="cls-3" x1="918.94" y1="194.23" x2="1055.84" y2="194.23"/><line class="cls-3" x1="904.14" y1="209.03" x2="1070.64" y2="209.03"/><line class="cls-3" x1="886.94" y1="226.23" x2="1087.84" y2="226.23"/><line class="cls-3" x1="872.54" y1="240.63" x2="1103.25" y2="240.63"/><line class="cls-3" x1="859.76" y1="250.95" x2="1112.63" y2="251.02"/><line class="cls-3" x1="893.19" y1="251.05" x2="893.19" y2="265.35"/><line class="cls-3" x1="968.54" y1="251.27" x2="968.54" y2="262.68"/><line class="cls-3" x1="1060.52" y1="251.55" x2="1060.52" y2="262.68"/><line class="cls-3" x1="931.52" y1="240.63" x2="931.52" y2="251.05"/><line class="cls-3" x1="885.19" y1="240.63" x2="885.19" y2="251.02"/><line class="cls-3" x1="997.86" y1="240.63" x2="997.86" y2="249.68"/><line class="cls-3" x1="1047.19" y1="240.63" x2="1047.19" y2="249.68"/><line class="cls-3" x1="1097.52" y1="240.63" x2="1097.52" y2="251.66"/><line class="cls-3" x1="913.86" y1="226.23" x2="913.86" y2="240.63"/><line class="cls-3" x1="961.79" y1="240.63" x2="961.79" y2="249.68"/><line class="cls-3" x1="958.19" y1="226.23" x2="958.19" y2="240.63"/><line class="cls-3" x1="992.52" y1="226.23" x2="992.52" y2="240.63"/><line class="cls-3" x1="1040.86" y1="226.23" x2="1040.86" y2="240.63"/><line class="cls-3" x1="1083.19" y1="226.23" x2="1083.19" y2="240.63"/><line class="cls-3" x1="936.68" y1="209.03" x2="936.68" y2="226.23"/><line class="cls-3" x1="979.86" y1="209.03" x2="979.86" y2="226.23"/><line class="cls-3" x1="1023.48" y1="209.03" x2="1023.48" y2="226.23"/><line class="cls-3" x1="1067.19" y1="209.03" x2="1067.19" y2="226.23"/><line class="cls-3" x1="926.86" y1="194.23" x2="926.86" y2="209.03"/><line class="cls-3" x1="958.19" y1="194.23" x2="958.19" y2="209.03"/><line class="cls-3" x1="1011.52" y1="194.23" x2="1011.52" y2="209.03"/><line class="cls-3" x1="1050.41" y1="194.23" x2="1050.41" y2="209.03"/><line class="cls-3" x1="945.86" y1="178.06" x2="945.86" y2="194.23"/><line class="cls-3" x1="986.59" y1="178.06" x2="986.59" y2="194.23"/><line class="cls-3" x1="1028.86" y1="178.06" x2="1028.86" y2="194.23"/><line class="cls-3" x1="961.79" y1="161.88" x2="961.79" y2="178.06"/><line class="cls-3" x1="997.86" y1="161.88" x2="997.86" y2="178.06"/><line class="cls-3" x1="977.86" y1="144.63" x2="977.86" y2="161.88"/><line class="cls-3" x1="1003.86" y1="144.63" x2="1003.86" y2="160.35"/></g></g></svg>