<svg xmlns="http://www.w3.org/2000/svg" viewBox="0 0 565 283.74"><defs><style>.cls-1{fill:#999;}.cls-2{fill:#dd0a0a;}.cls-3{fill:red;}.cls-4{fill:#fff;}.cls-5{fill:#ff7bac;}</style></defs><title>Asset 5</title><g id="Layer_2" data-name="Layer 2"><g id="Layer_1-2" data-name="Layer 1"><path class="cls-1" d="M493,230.5c-1.49,13.94-152.37,53.23-259.41,53.23S-1.48,248.11,0,234.17l190.24,22.39,154.66-1.72Z"/><rect class="cls-1" x="97.5" y="221.67" width="8.13" height="26.21"/><rect class="cls-1" x="358.57" y="227" width="8.13" height="26.21"/><ellipse class="cls-2" cx="242" cy="151.5" rx="97.83" ry="63.83"/><path d="M174.75,105.14v56.22h9.08s-.21-54.12-.21-61.09Z"/><path d="M307.84,104.92v65.25h-9.08s.21-62.81.21-70.89Z"/><rect x="429.5" y="184.5" width="135.5" height="28" rx="6" ry="6"/><path class="cls-3" d="M452.5,230.5H48.5a6,6,0,0,1-6-6V57.5a6,6,0,0,1,6-6S163.92,175.75,252,175.75,462.54,71.58,462.54,71.58C463.5,54.8,455.8,230.5,452.5,230.5Z"/><polygon class="cls-4" points="274.49 141.62 251.68 146.76 242.99 168.47 231.04 148.37 207.71 146.81 223.14 129.24 217.41 106.56 238.89 115.81 258.69 103.35 256.53 126.64 274.49 141.62"/><ellipse class="cls-5" cx="242" cy="83.34" rx="53.67" ry="48.67"/><polygon class="cls-2" points="240.87 12.15 261.57 48 220.17 48 240.87 12.15"/><ellipse class="cls-4" cx="220" cy="73.34" rx="6.58" ry="5.92"/><ellipse class="cls-4" cx="260" cy="73.34" rx="9" ry="7.83"/><path class="cls-2" d="M269.51,106.67c0,4.69-12.42,8.5-27.75,8.5S214,111.37,214,106.67Z"/><ellipse cx="220.17" cy="73.71" rx="3.17" ry="1.54"/><ellipse cx="260" cy="74.05" rx="1.54" ry="3.17" transform="translate(-5.49 23.09) rotate(-5.03)"/><path class="cls-5" d="M213.42,73.34c0-3.27,2.95-5.92,6.58-5.92s6.58,2.65,6.58,5.92"/><path class="cls-5" d="M251,73.34c0-4.33,4-7.83,9-7.83s9,3.51,9,7.83Z"/><rect class="cls-4" x="206.49" y="96.74" width="5.01" height="19.87" rx="2.5" ry="2.5"/><rect class="cls-4" x="207.96" y="96.74" width="67.61" height="4.39" rx="2.2" ry="2.2"/><rect class="cls-4" x="270.88" y="96.74" width="4.68" height="21.03" rx="2.34" ry="2.34"/><ellipse class="cls-4" cx="220.51" cy="63.93" rx="9.01" ry="1.57"/><ellipse class="cls-4" cx="263.57" cy="63.14" rx="9.65" ry="0.79"/><ellipse class="cls-4" cx="241.24" cy="7.27" rx="8" ry="7.27"/><polygon class="cls-5" points="196.25 69.42 189.22 67.06 183.29 71.51 183.37 64.1 177.31 59.83 184.38 57.61 186.56 50.53 190.86 56.57 198.27 56.46 193.85 62.41 196.25 69.42"/><polygon class="cls-5" points="292.28 78.03 293.15 69.96 286.99 64.67 294.94 62.99 298.06 55.49 302.11 62.54 310.21 63.2 304.76 69.22 306.64 77.13 299.22 73.81 292.28 78.03"/></g></g></svg>