<svg xmlns="http://www.w3.org/2000/svg" viewBox="0 0 890.45 194.1"><defs><style>.cls-1{fill:#fff;}</style></defs><title>Asset 8</title><g id="Layer_2" data-name="Layer 2"><g id="Layer_1-2" data-name="Layer 1"><circle class="cls-1" cx="554.38" cy="49.82" r="2.51"/><rect class="cls-1" x="553.54" y="36.61" width="1.74" height="10.87"/><rect class="cls-1" x="555" y="40.37" width="1.74" height="2.8" transform="matrix(-0.6, -0.8, 0.8, -0.6, 856.52, 511.18)"/><rect class="cls-1" x="552.04" y="40.37" width="1.74" height="2.8" transform="translate(187.27 458.62) rotate(-53.06)"/><rect class="cls-1" x="555" y="37.17" width="1.74" height="2.8" transform="matrix(-0.6, -0.8, 0.8, -0.6, 859.08, 506.05)"/><rect class="cls-1" x="552.04" y="37.17" width="1.74" height="2.8" transform="translate(189.83 457.34) rotate(-53.06)"/><rect class="cls-1" x="553.55" y="51.98" width="1.74" height="10.87"/><rect class="cls-1" x="555.01" y="56.29" width="1.74" height="2.8" transform="translate(936.04 -351.97) rotate(126.94)"/><rect class="cls-1" x="552.06" y="56.29" width="1.74" height="2.8" transform="matrix(0.6, 0.8, -0.8, 0.6, 266.77, -418.94)"/><rect class="cls-1" x="555.01" y="59.49" width="1.74" height="2.8" transform="translate(938.6 -346.84) rotate(126.94)"/><rect class="cls-1" x="552.06" y="59.49" width="1.74" height="2.8" transform="matrix(0.6, 0.8, -0.8, 0.6, 269.33, -417.66)"/><rect class="cls-1" x="561.06" y="44.41" width="1.74" height="10.87" transform="translate(611.77 -512.09) rotate(90)"/><rect class="cls-1" x="561.34" y="49.91" width="1.74" height="2.8" transform="translate(82 348.14) rotate(-36.94)"/><rect class="cls-1" x="561.34" y="46.95" width="1.74" height="2.8" transform="translate(141.88 -328.14) rotate(36.94)"/><rect class="cls-1" x="564.54" y="49.91" width="1.74" height="2.8" transform="translate(82.64 350.06) rotate(-36.94)"/><rect class="cls-1" x="564.54" y="46.95" width="1.74" height="2.8" transform="translate(142.52 -330.06) rotate(36.94)"/><rect class="cls-1" x="545.97" y="44.42" width="1.74" height="10.87" transform="translate(596.7 -496.99) rotate(90)"/><rect class="cls-1" x="545.69" y="49.92" width="1.74" height="2.8" transform="translate(952.6 420.78) rotate(-143.06)"/><rect class="cls-1" x="545.69" y="46.96" width="1.74" height="2.8" transform="translate(1012.5 -241.43) rotate(143.06)"/><rect class="cls-1" x="542.49" y="49.92" width="1.74" height="2.8" transform="translate(946.84 418.85) rotate(-143.06)"/><rect class="cls-1" x="542.49" y="46.96" width="1.74" height="2.8" transform="translate(1006.73 -239.5) rotate(143.06)"/><rect class="cls-1" x="548.23" y="49.71" width="1.74" height="10.87" transform="translate(199.82 -372.12) rotate(45)"/><rect class="cls-1" x="549.06" y="54.98" width="1.74" height="2.8" transform="translate(1102.34 35.05) rotate(171.94)"/><rect class="cls-1" x="546.97" y="52.89" width="1.74" height="2.8" transform="translate(678.45 -480.52) rotate(98.06)"/><rect class="cls-1" x="546.8" y="57.25" width="1.74" height="2.8" transform="translate(1098.15 39.88) rotate(171.94)"/><rect class="cls-1" x="544.71" y="55.15" width="1.74" height="2.8" transform="translate(678.11 -475.7) rotate(98.06)"/><rect class="cls-1" x="558.98" y="49.77" width="1.74" height="10.87" transform="translate(994.76 -301.65) rotate(135)"/><rect class="cls-1" x="558.15" y="55.03" width="1.74" height="2.8" transform="translate(13.44 -77.86) rotate(8.06)"/><rect class="cls-1" x="560.24" y="52.94" width="1.74" height="2.8" transform="translate(536.19 -508.84) rotate(81.94)"/><rect class="cls-1" x="560.41" y="57.3" width="1.74" height="2.8" transform="translate(13.78 -78.16) rotate(8.06)"/><rect class="cls-1" x="562.5" y="55.21" width="1.74" height="2.8" transform="translate(540.38 -509.14) rotate(81.94)"/><rect class="cls-1" x="548.05" y="38.84" width="1.74" height="10.87" transform="translate(129.47 401.11) rotate(-45)"/><rect class="cls-1" x="548.89" y="41.64" width="1.74" height="2.8" transform="matrix(-0.99, -0.14, 0.14, -0.99, 1088.04, 162.78)"/><rect class="cls-1" x="546.8" y="43.74" width="1.74" height="2.8" transform="translate(579.81 593.72) rotate(-98.06)"/><rect class="cls-1" x="546.62" y="39.38" width="1.74" height="2.8" transform="translate(1083.85 157.96) rotate(-171.94)"/><rect class="cls-1" x="544.53" y="41.47" width="1.74" height="2.8" transform="translate(579.47 588.89) rotate(-98.06)"/><rect class="cls-1" x="558.92" y="39" width="1.74" height="10.87" transform="translate(924.21 471.69) rotate(-135)"/><rect class="cls-1" x="558.1" y="41.8" width="1.74" height="2.8" transform="matrix(0.99, -0.14, 0.14, 0.99, -0.53, 78.84)"/><rect class="cls-1" x="560.19" y="43.9" width="1.74" height="2.8" transform="translate(437.5 594.45) rotate(-81.94)"/><rect class="cls-1" x="560.35" y="39.54" width="1.74" height="2.8" transform="matrix(0.99, -0.14, 0.14, 0.99, -0.19, 79.14)"/><rect class="cls-1" x="562.44" y="41.63" width="1.74" height="2.8" transform="translate(441.69 594.73) rotate(-81.94)"/><circle class="cls-1" cx="12.97" cy="156.73" r="2.51"/><rect class="cls-1" x="12.12" y="143.52" width="1.74" height="10.87"/><rect class="cls-1" x="13.59" y="147.27" width="1.74" height="2.8" transform="matrix(-0.6, -0.8, 0.8, -0.6, -95.69, 249.57)"/><rect class="cls-1" x="10.63" y="147.27" width="1.74" height="2.8" transform="translate(-114.24 68.53) rotate(-53.06)"/><rect class="cls-1" x="13.59" y="144.07" width="1.74" height="2.8" transform="matrix(-0.6, -0.8, 0.8, -0.6, -93.13, 244.44)"/><rect class="cls-1" x="10.63" y="144.07" width="1.74" height="2.8" transform="translate(-111.68 67.25) rotate(-53.06)"/><rect class="cls-1" x="12.14" y="158.88" width="1.74" height="10.87"/><rect class="cls-1" x="13.6" y="163.2" width="1.74" height="2.8" transform="translate(154.73 251.93) rotate(126.94)"/><rect class="cls-1" x="10.65" y="163.2" width="1.74" height="2.8" transform="matrix(0.6, 0.8, -0.8, 0.6, 136.16, 56.48)"/><rect class="cls-1" x="13.6" y="166.4" width="1.74" height="2.8" transform="translate(157.29 257.06) rotate(126.94)"/><rect class="cls-1" x="10.65" y="166.4" width="1.74" height="2.8" transform="matrix(0.6, 0.8, -0.8, 0.6, 138.72, 57.76)"/><rect class="cls-1" x="19.65" y="151.31" width="1.74" height="10.87" transform="translate(177.26 136.23) rotate(90)"/><rect class="cls-1" x="19.93" y="156.81" width="1.74" height="2.8" transform="translate(-90.9 44.25) rotate(-36.94)"/><rect class="cls-1" x="19.93" y="153.85" width="1.74" height="2.8" transform="translate(97.47 18.66) rotate(36.94)"/><rect class="cls-1" x="23.13" y="156.81" width="1.74" height="2.8" transform="translate(-90.25 46.17) rotate(-36.94)"/><rect class="cls-1" x="23.13" y="153.85" width="1.74" height="2.8" transform="translate(98.11 16.74) rotate(36.94)"/><rect class="cls-1" x="4.56" y="151.33" width="1.74" height="10.87" transform="translate(162.19 151.33) rotate(90)"/><rect class="cls-1" x="4.28" y="156.82" width="1.74" height="2.8" transform="translate(-85.81 287.79) rotate(-143.06)"/><rect class="cls-1" x="4.28" y="153.87" width="1.74" height="2.8" transform="translate(102.57 276.27) rotate(143.06)"/><rect class="cls-1" x="1.08" y="156.82" width="1.74" height="2.8" transform="translate(-91.57 285.86) rotate(-143.06)"/><rect class="cls-1" x="1.08" y="153.87" width="1.74" height="2.8" transform="translate(96.81 278.2) rotate(143.06)"/><rect class="cls-1" x="6.81" y="156.62" width="1.74" height="10.87" transform="translate(116.84 42.03) rotate(45)"/><rect class="cls-1" x="7.65" y="161.88" width="1.74" height="2.8" transform="translate(39.87 323.75) rotate(171.94)"/><rect class="cls-1" x="5.56" y="159.79" width="1.74" height="2.8" transform="translate(166.93 177.44) rotate(98.06)"/><rect class="cls-1" x="5.39" y="164.15" width="1.74" height="2.8" transform="translate(35.68 328.58) rotate(171.94)"/><rect class="cls-1" x="3.3" y="162.06" width="1.74" height="2.8" transform="translate(166.59 182.26) rotate(98.06)"/><rect class="cls-1" x="17.57" y="156.67" width="1.74" height="10.87" transform="translate(146.1 263.69) rotate(135)"/><rect class="cls-1" x="16.73" y="161.94" width="1.74" height="2.8" transform="translate(23.09 -0.85) rotate(8.06)"/><rect class="cls-1" x="18.83" y="159.85" width="1.74" height="2.8" transform="translate(176.58 119.12) rotate(81.94)"/><rect class="cls-1" x="19" y="164.2" width="1.74" height="2.8" transform="translate(23.43 -1.15) rotate(8.06)"/><rect class="cls-1" x="21.09" y="162.11" width="1.74" height="2.8" transform="translate(180.77 118.83) rotate(81.94)"/><rect class="cls-1" x="6.64" y="145.75" width="1.74" height="10.87" transform="translate(-104.7 49.59) rotate(-45)"/><rect class="cls-1" x="7.48" y="148.55" width="1.74" height="2.8" transform="translate(-4.43 299.58) rotate(-171.94)"/><rect class="cls-1" x="5.38" y="150.64" width="1.74" height="2.8" transform="translate(-143.4 179.56) rotate(-98.06)"/><rect class="cls-1" x="5.21" y="146.28" width="1.74" height="2.8" transform="translate(-8.62 294.76) rotate(-171.94)"/><rect class="cls-1" x="3.12" y="148.38" width="1.74" height="2.8" transform="translate(-143.74 174.73) rotate(-98.06)"/><rect class="cls-1" x="17.51" y="145.91" width="1.74" height="10.87" transform="translate(-75.63 271.35) rotate(-135)"/><rect class="cls-1" x="16.68" y="148.71" width="1.74" height="2.8" transform="matrix(0.99, -0.14, 0.14, 0.99, -20.88, 3.95)"/><rect class="cls-1" x="18.78" y="150.8" width="1.74" height="2.8" transform="translate(-133.8 150.3) rotate(-81.94)"/><rect class="cls-1" x="18.94" y="146.44" width="1.74" height="2.8" transform="matrix(0.99, -0.14, 0.14, 0.99, -20.54, 4.24)"/><rect class="cls-1" x="21.03" y="148.53" width="1.74" height="2.8" transform="translate(-129.62 150.58) rotate(-81.94)"/><circle class="cls-1" cx="423.26" cy="181.08" r="2.51"/><rect class="cls-1" x="422.41" y="167.87" width="1.74" height="10.87"/><rect class="cls-1" x="423.87" y="171.62" width="1.74" height="2.8" transform="matrix(-0.6, -0.8, 0.8, -0.6, 541.68, 616.49)"/><rect class="cls-1" x="420.91" y="171.62" width="1.74" height="2.8" transform="translate(30.03 406.19) rotate(-53.06)"/><rect class="cls-1" x="423.87" y="168.42" width="1.74" height="2.8" transform="matrix(-0.6, -0.8, 0.8, -0.6, 544.24, 611.37)"/><rect class="cls-1" x="420.91" y="168.42" width="1.74" height="2.8" transform="translate(32.59 404.91) rotate(-53.06)"/><rect class="cls-1" x="422.42" y="183.23" width="1.74" height="10.87"/><rect class="cls-1" x="423.89" y="187.55" width="1.74" height="2.8" transform="translate(831.02 -37.03) rotate(126.94)"/><rect class="cls-1" x="420.93" y="187.55" width="1.74" height="2.8" transform="matrix(0.6, 0.8, -0.8, 0.6, 319.36, -261.74)"/><rect class="cls-1" x="423.89" y="190.75" width="1.74" height="2.8" transform="translate(833.58 -31.9) rotate(126.94)"/><rect class="cls-1" x="420.93" y="190.75" width="1.74" height="2.8" transform="matrix(0.6, 0.8, -0.8, 0.6, 321.92, -260.47)"/><rect class="cls-1" x="429.93" y="175.66" width="1.74" height="10.87" transform="translate(611.89 -249.71) rotate(90)"/><rect class="cls-1" x="430.21" y="181.16" width="1.74" height="2.8" transform="translate(-23.19 295.68) rotate(-36.94)"/><rect class="cls-1" x="430.21" y="178.2" width="1.74" height="2.8" transform="translate(194.44 -223) rotate(36.94)"/><rect class="cls-1" x="433.41" y="181.16" width="1.74" height="2.8" transform="translate(-22.55 297.61) rotate(-36.94)"/><rect class="cls-1" x="433.41" y="178.2" width="1.74" height="2.8" transform="translate(195.08 -224.92) rotate(36.94)"/><rect class="cls-1" x="414.85" y="175.68" width="1.74" height="10.87" transform="translate(596.82 -234.61) rotate(90)"/><rect class="cls-1" x="414.57" y="181.17" width="1.74" height="2.8" transform="translate(637.79 578.15) rotate(-143.06)"/><rect class="cls-1" x="414.57" y="178.22" width="1.74" height="2.8" transform="translate(855.43 73.54) rotate(143.06)"/><rect class="cls-1" x="411.36" y="181.17" width="1.74" height="2.8" transform="translate(632.02 576.22) rotate(-143.06)"/><rect class="cls-1" x="411.36" y="178.22" width="1.74" height="2.8" transform="translate(849.67 75.47) rotate(143.06)"/><rect class="cls-1" x="417.1" y="180.97" width="1.74" height="10.87" transform="translate(254.22 -240.95) rotate(45)"/><rect class="cls-1" x="417.94" y="186.23" width="1.74" height="2.8" transform="translate(859.79 314.66) rotate(171.94)"/><rect class="cls-1" x="415.84" y="184.14" width="1.74" height="2.8" transform="translate(658.88 -201.02) rotate(98.06)"/><rect class="cls-1" x="415.67" y="188.5" width="1.74" height="2.8" transform="translate(855.6 319.48) rotate(171.94)"/><rect class="cls-1" x="413.58" y="186.41" width="1.74" height="2.8" transform="translate(658.54 -196.2) rotate(98.06)"/><rect class="cls-1" x="427.85" y="181.02" width="1.74" height="10.87" transform="translate(863.72 15.14) rotate(135)"/><rect class="cls-1" x="427.02" y="186.29" width="1.74" height="2.8" transform="translate(30.56 -58.17) rotate(8.06)"/><rect class="cls-1" x="429.11" y="184.2" width="1.74" height="2.8" transform="translate(553.42 -266.17) rotate(81.94)"/><rect class="cls-1" x="429.28" y="188.55" width="1.74" height="2.8" transform="translate(30.9 -58.47) rotate(8.06)"/><rect class="cls-1" x="431.37" y="186.46" width="1.74" height="2.8" transform="translate(557.61 -266.46) rotate(81.94)"/><rect class="cls-1" x="416.92" y="170.1" width="1.74" height="10.87" transform="translate(-1.75 346.84) rotate(-45)"/><rect class="cls-1" x="417.76" y="172.9" width="1.74" height="2.8" transform="matrix(-0.99, -0.14, 0.14, -0.99, 808.67, 405.6)"/><rect class="cls-1" x="415.67" y="174.99" width="1.74" height="2.8" transform="translate(300.33 613.55) rotate(-98.06)"/><rect class="cls-1" x="415.49" y="170.63" width="1.74" height="2.8" transform="translate(804.48 400.77) rotate(-171.94)"/><rect class="cls-1" x="413.4" y="172.73" width="1.74" height="2.8" transform="translate(299.99 608.73) rotate(-98.06)"/><rect class="cls-1" x="427.8" y="170.26" width="1.74" height="10.87" transform="translate(607.55 603.04) rotate(-135)"/><rect class="cls-1" x="426.97" y="173.06" width="1.74" height="2.8" transform="matrix(0.99, -0.14, 0.14, 0.99, -20.24, 61.74)"/><rect class="cls-1" x="429.06" y="175.15" width="1.74" height="2.8" transform="translate(194.81 577.46) rotate(-81.94)"/><rect class="cls-1" x="429.22" y="170.79" width="1.74" height="2.8" transform="matrix(0.99, -0.14, 0.14, 0.99, -19.9, 62.04)"/><rect class="cls-1" x="431.32" y="172.88" width="1.74" height="2.8" transform="translate(199 577.75) rotate(-81.94)"/><circle class="cls-1" cx="877.48" cy="61.88" r="2.51"/><rect class="cls-1" x="876.63" y="48.67" width="1.74" height="10.87"/><rect class="cls-1" x="878.09" y="52.43" width="1.74" height="2.8" transform="matrix(-0.6, -0.8, 0.8, -0.6, 1364.12, 788.73)"/><rect class="cls-1" x="875.14" y="52.43" width="1.74" height="2.8" transform="translate(306.58 721.68) rotate(-53.06)"/><rect class="cls-1" x="878.09" y="49.22" width="1.74" height="2.8" transform="translate(1366.69 783.6) rotate(-126.94)"/><rect class="cls-1" x="875.14" y="49.22" width="1.74" height="2.8" transform="translate(309.14 720.4) rotate(-53.06)"/><rect class="cls-1" x="876.64" y="64.03" width="1.74" height="10.87"/><rect class="cls-1" x="878.11" y="68.35" width="1.74" height="2.8" transform="translate(1462.92 -590.92) rotate(126.94)"/><rect class="cls-1" x="875.15" y="68.35" width="1.74" height="2.8" transform="matrix(0.6, 0.8, -0.8, 0.6, 405.35, -672.38)"/><rect class="cls-1" x="878.11" y="71.55" width="1.74" height="2.8" transform="translate(1465.48 -585.79) rotate(126.94)"/><rect class="cls-1" x="875.15" y="71.55" width="1.74" height="2.8" transform="translate(407.91 -671.1) rotate(53.06)"/><rect class="cls-1" x="884.15" y="56.46" width="1.74" height="10.87" transform="translate(946.92 -823.12) rotate(90)"/><rect class="cls-1" x="884.43" y="61.96" width="1.74" height="2.8" transform="translate(139.6 544.71) rotate(-36.94)"/><rect class="cls-1" x="884.43" y="59.01" width="1.74" height="2.8" transform="translate(213.97 -519.87) rotate(36.94)"/><rect class="cls-1" x="887.63" y="61.96" width="1.74" height="2.8" transform="translate(140.24 546.63) rotate(-36.94)"/><rect class="cls-1" x="887.63" y="59.01" width="1.74" height="2.8" transform="translate(214.61 -521.8) rotate(36.94)"/><rect class="cls-1" x="869.07" y="56.48" width="1.74" height="10.87" transform="translate(931.85 -808.03) rotate(90)"/><rect class="cls-1" x="868.79" y="61.98" width="1.74" height="2.8" transform="translate(1526.7 636.62) rotate(-143.06)"/><rect class="cls-1" x="868.79" y="59.02" width="1.74" height="2.8" transform="translate(1601.09 -413.88) rotate(143.06)"/><rect class="cls-1" x="865.58" y="61.98" width="1.74" height="2.8" transform="translate(1520.94 634.7) rotate(-143.06)"/><rect class="cls-1" x="865.58" y="59.02" width="1.74" height="2.8" transform="translate(1595.32 -411.96) rotate(143.06)"/><rect class="cls-1" x="871.32" y="61.77" width="1.74" height="10.87" transform="translate(302.98 -597.05) rotate(45)"/><rect class="cls-1" x="872.16" y="67.04" width="1.74" height="2.8" transform="translate(1747.02 13.72) rotate(171.94)"/><rect class="cls-1" x="870.07" y="64.95" width="1.74" height="2.8" transform="translate(1058.8 -786.67) rotate(98.06)"/><rect class="cls-1" x="869.89" y="69.3" width="1.74" height="2.8" transform="translate(1742.83 18.55) rotate(171.94)"/><rect class="cls-1" x="867.8" y="67.21" width="1.74" height="2.8" transform="translate(1058.46 -781.85) rotate(98.06)"/><rect class="cls-1" x="882.08" y="61.82" width="1.74" height="10.87" transform="translate(1554.84 -509.52) rotate(135)"/><rect class="cls-1" x="881.24" y="67.09" width="1.74" height="2.8" transform="translate(18.33 -123.07) rotate(8.06)"/><rect class="cls-1" x="883.33" y="65" width="1.74" height="2.8" transform="translate(825.9 -818.37) rotate(81.94)"/><rect class="cls-1" x="883.5" y="69.36" width="1.74" height="2.8" transform="translate(18.67 -123.36) rotate(8.06)"/><rect class="cls-1" x="885.59" y="67.27" width="1.74" height="2.8" transform="translate(830.09 -818.67) rotate(81.94)"/><rect class="cls-1" x="871.14" y="50.9" width="1.74" height="10.87" transform="translate(215.57 633.11) rotate(-45)"/><rect class="cls-1" x="871.98" y="53.7" width="1.74" height="2.8" transform="translate(1729.34 232.1) rotate(-171.94)"/><rect class="cls-1" x="869.89" y="55.79" width="1.74" height="2.8" transform="translate(936.29 927.36) rotate(-98.06)"/><rect class="cls-1" x="869.71" y="51.44" width="1.74" height="2.8" transform="translate(1725.15 227.28) rotate(-171.94)"/><rect class="cls-1" x="867.62" y="53.53" width="1.74" height="2.8" transform="translate(935.95 922.54) rotate(-98.06)"/><rect class="cls-1" x="882.02" y="51.06" width="1.74" height="10.87" transform="translate(1467.24 720.74) rotate(-135)"/><rect class="cls-1" x="881.19" y="53.86" width="1.74" height="2.8" transform="translate(0.97 124.29) rotate(-8.06)"/><rect class="cls-1" x="883.28" y="55.95" width="1.74" height="2.8" transform="translate(703.33 924.71) rotate(-81.94)"/><rect class="cls-1" x="883.45" y="51.6" width="1.74" height="2.8" transform="matrix(0.99, -0.14, 0.14, 0.99, 1.31, 124.58)"/><rect class="cls-1" x="885.54" y="53.69" width="1.74" height="2.8" transform="translate(707.52 925) rotate(-81.94)"/><circle class="cls-1" cx="68.73" cy="13.21" r="2.51"/><rect class="cls-1" x="67.88" width="1.74" height="10.87"/><rect class="cls-1" x="69.35" y="3.75" width="1.74" height="2.8" transform="matrix(-0.6, -0.8, 0.8, -0.6, 108.29, 64.37)"/><rect class="cls-1" x="66.39" y="3.75" width="1.74" height="2.8" transform="translate(22.72 55.82) rotate(-53.06)"/><rect class="cls-1" x="69.35" y="0.55" width="1.74" height="2.8" transform="translate(110.85 59.24) rotate(-126.94)"/><rect class="cls-1" x="66.39" y="0.55" width="1.74" height="2.8" transform="translate(25.28 54.54) rotate(-53.06)"/><rect class="cls-1" x="67.9" y="15.36" width="1.74" height="10.87"/><rect class="cls-1" x="69.36" y="19.68" width="1.74" height="2.8" transform="translate(129.28 -22.4) rotate(126.94)"/><rect class="cls-1" x="66.4" y="19.68" width="1.74" height="2.8" transform="matrix(0.6, 0.8, -0.8, 0.6, 43.69, -45.36)"/><rect class="cls-1" x="69.36" y="22.88" width="1.74" height="2.8" transform="translate(131.84 -17.27) rotate(126.94)"/><rect class="cls-1" x="66.4" y="22.88" width="1.74" height="2.8" transform="translate(46.25 -44.08) rotate(53.06)"/><rect class="cls-1" x="75.4" y="7.79" width="1.74" height="10.87" transform="translate(89.5 -63.05) rotate(90)"/><rect class="cls-1" x="75.68" y="13.29" width="1.74" height="2.8" transform="translate(6.54 48.95) rotate(-36.94)"/><rect class="cls-1" x="75.68" y="10.33" width="1.74" height="2.8" transform="translate(22.41 -43.65) rotate(36.94)"/><rect class="cls-1" x="78.89" y="13.29" width="1.74" height="2.8" transform="translate(7.18 50.88) rotate(-36.94)"/><rect class="cls-1" x="78.89" y="10.33" width="1.74" height="2.8" transform="translate(23.06 -45.57) rotate(36.94)"/><rect class="cls-1" x="60.32" y="7.81" width="1.74" height="10.87" transform="translate(74.43 -47.95) rotate(90)"/><rect class="cls-1" x="60.04" y="13.31" width="1.74" height="2.8" transform="translate(100.76 63.06) rotate(-143.06)"/><rect class="cls-1" x="60.04" y="10.35" width="1.74" height="2.8" transform="translate(116.65 -15.47) rotate(143.06)"/><rect class="cls-1" x="56.84" y="13.31" width="1.74" height="2.8" transform="translate(94.99 61.13) rotate(-143.06)"/><rect class="cls-1" x="56.84" y="10.35" width="1.74" height="2.8" transform="translate(110.89 -13.54) rotate(143.06)"/><rect class="cls-1" x="62.57" y="13.1" width="1.74" height="10.87" transform="translate(31.68 -39.43) rotate(45)"/><rect class="cls-1" x="63.41" y="18.37" width="1.74" height="2.8" transform="translate(130.69 30.31) rotate(171.94)"/><rect class="cls-1" x="61.32" y="16.27" width="1.74" height="2.8" transform="translate(88.41 -41.42) rotate(98.06)"/><rect class="cls-1" x="61.14" y="20.63" width="1.74" height="2.8" transform="translate(126.5 35.14) rotate(171.94)"/><rect class="cls-1" x="59.05" y="18.54" width="1.74" height="2.8" transform="translate(88.07 -36.59) rotate(98.06)"/><rect class="cls-1" x="73.33" y="13.15" width="1.74" height="10.87" transform="translate(139.8 -20.74) rotate(135)"/><rect class="cls-1" x="72.49" y="18.42" width="1.74" height="2.8" transform="translate(3.51 -10.1) rotate(8.06)"/><rect class="cls-1" x="74.58" y="16.33" width="1.74" height="2.8" transform="translate(82.42 -59.47) rotate(81.94)"/><rect class="cls-1" x="74.76" y="20.68" width="1.74" height="2.8" transform="translate(3.85 -10.39) rotate(8.06)"/><rect class="cls-1" x="76.85" y="18.59" width="1.74" height="2.8" transform="translate(86.61 -59.76) rotate(81.94)"/><rect class="cls-1" x="62.4" y="2.23" width="1.74" height="10.87" transform="translate(13.11 46.98) rotate(-45)"/><rect class="cls-1" x="63.23" y="5.03" width="1.74" height="2.8" transform="translate(126.67 21.79) rotate(-171.94)"/><rect class="cls-1" x="61.14" y="7.12" width="1.74" height="2.8" transform="translate(62.28 71.11) rotate(-98.06)"/><rect class="cls-1" x="60.97" y="2.77" width="1.74" height="2.8" transform="translate(122.48 16.96) rotate(-171.94)"/><rect class="cls-1" x="58.88" y="4.86" width="1.74" height="2.8" transform="translate(61.94 66.29) rotate(-98.06)"/><rect class="cls-1" x="73.27" y="2.39" width="1.74" height="10.87" transform="translate(121.03 65.78) rotate(-135)"/><rect class="cls-1" x="72.44" y="5.19" width="1.74" height="2.8" transform="translate(-0.2 10.35) rotate(-8.06)"/><rect class="cls-1" x="74.53" y="7.28" width="1.74" height="2.8" transform="translate(56.23 82.12) rotate(-81.94)"/><rect class="cls-1" x="74.7" y="2.92" width="1.74" height="2.8" transform="matrix(0.99, -0.14, 0.14, 0.99, 0.14, 10.64)"/><rect class="cls-1" x="76.79" y="5.02" width="1.74" height="2.8" transform="translate(60.41 82.4) rotate(-81.94)"/><circle class="cls-1" cx="173.54" cy="139.52" r="2.51"/><rect class="cls-1" x="172.7" y="126.31" width="1.74" height="10.87"/><rect class="cls-1" x="174.16" y="130.07" width="1.74" height="2.8" transform="matrix(-0.6, -0.8, 0.8, -0.6, 175.13, 350.37)"/><rect class="cls-1" x="171.2" y="130.07" width="1.74" height="2.8" transform="translate(-36.41 190.01) rotate(-53.06)"/><rect class="cls-1" x="174.16" y="126.87" width="1.74" height="2.8" transform="matrix(-0.6, -0.8, 0.8, -0.6, 177.69, 345.24)"/><rect class="cls-1" x="171.2" y="126.87" width="1.74" height="2.8" transform="translate(-33.85 188.73) rotate(-53.06)"/><rect class="cls-1" x="172.71" y="141.68" width="1.74" height="10.87"/><rect class="cls-1" x="174.17" y="145.99" width="1.74" height="2.8" transform="translate(398.04 96.04) rotate(126.94)"/><rect class="cls-1" x="171.22" y="145.99" width="1.74" height="2.8" transform="matrix(0.6, 0.8, -0.8, 0.6, 186.49, -78.73)"/><rect class="cls-1" x="174.17" y="149.19" width="1.74" height="2.8" transform="translate(400.6 101.17) rotate(126.94)"/><rect class="cls-1" x="171.22" y="149.19" width="1.74" height="2.8" transform="matrix(0.6, 0.8, -0.8, 0.6, 189.05, -77.45)"/><rect class="cls-1" x="180.22" y="134.11" width="1.74" height="10.87" transform="translate(320.63 -41.55) rotate(90)"/><rect class="cls-1" x="180.5" y="139.61" width="1.74" height="2.8" transform="translate(-48.33 137.28) rotate(-36.94)"/><rect class="cls-1" x="180.5" y="136.65" width="1.74" height="2.8" transform="translate(119.35 -81.28) rotate(36.94)"/><rect class="cls-1" x="183.7" y="139.61" width="1.74" height="2.8" transform="translate(-47.69 139.21) rotate(-36.94)"/><rect class="cls-1" x="183.7" y="136.65" width="1.74" height="2.8" transform="translate(120 -83.21) rotate(36.94)"/><rect class="cls-1" x="165.13" y="134.12" width="1.74" height="10.87" transform="translate(305.56 -26.45) rotate(90)"/><rect class="cls-1" x="164.85" y="139.62" width="1.74" height="2.8" transform="translate(213.45 353.32) rotate(-143.06)"/><rect class="cls-1" x="164.85" y="136.66" width="1.74" height="2.8" transform="translate(381.15 148.83) rotate(143.06)"/><rect class="cls-1" x="161.65" y="139.62" width="1.74" height="2.8" transform="translate(207.68 351.4) rotate(-143.06)"/><rect class="cls-1" x="161.65" y="136.66" width="1.74" height="2.8" transform="translate(375.39 150.75) rotate(143.06)"/><rect class="cls-1" x="167.39" y="139.41" width="1.74" height="10.87" transform="translate(151.7 -76.55) rotate(45)"/><rect class="cls-1" x="168.22" y="144.68" width="1.74" height="2.8" transform="translate(357.01 266.99) rotate(171.94)"/><rect class="cls-1" x="166.13" y="142.59" width="1.74" height="2.8" transform="translate(332.99 -1.17) rotate(98.06)"/><rect class="cls-1" x="165.96" y="146.95" width="1.74" height="2.8" transform="translate(352.82 271.82) rotate(171.94)"/><rect class="cls-1" x="163.87" y="144.85" width="1.74" height="2.8" transform="translate(332.65 3.66) rotate(98.06)"/><rect class="cls-1" x="178.14" y="139.47" width="1.74" height="10.87" transform="translate(408.05 120.77) rotate(135)"/><rect class="cls-1" x="177.31" y="144.73" width="1.74" height="2.8" transform="translate(22.26 -23.55) rotate(8.06)"/><rect class="cls-1" x="179.4" y="142.64" width="1.74" height="2.8" transform="translate(297.59 -54.65) rotate(81.94)"/><rect class="cls-1" x="179.57" y="147" width="1.74" height="2.8" transform="translate(22.6 -23.85) rotate(8.06)"/><rect class="cls-1" x="181.66" y="144.91" width="1.74" height="2.8" transform="translate(301.78 -54.95) rotate(81.94)"/><rect class="cls-1" x="167.21" y="128.54" width="1.74" height="10.87" transform="translate(-45.51 158.09) rotate(-45)"/><rect class="cls-1" x="168.05" y="131.34" width="1.74" height="2.8" transform="translate(317.54 287.87) rotate(-171.94)"/><rect class="cls-1" x="165.96" y="133.44" width="1.74" height="2.8" transform="translate(56.73 318.92) rotate(-98.06)"/><rect class="cls-1" x="165.78" y="129.08" width="1.74" height="2.8" transform="translate(313.35 283.04) rotate(-171.94)"/><rect class="cls-1" x="163.69" y="131.17" width="1.74" height="2.8" transform="translate(56.39 314.1) rotate(-98.06)"/><rect class="cls-1" x="178.08" y="128.7" width="1.74" height="10.87" transform="translate(210.65 355.52) rotate(-135)"/><rect class="cls-1" x="177.26" y="131.5" width="1.74" height="2.8" transform="matrix(0.99, -0.14, 0.14, 0.99, -16.88, 26.3)"/><rect class="cls-1" x="179.35" y="133.6" width="1.74" height="2.8" transform="translate(21.28 294.49) rotate(-81.94)"/><rect class="cls-1" x="179.51" y="129.24" width="1.74" height="2.8" transform="matrix(0.99, -0.14, 0.14, 0.99, -16.54, 26.6)"/><rect class="cls-1" x="181.6" y="131.33" width="1.74" height="2.8" transform="translate(25.46 294.78) rotate(-81.94)"/><circle class="cls-1" cx="744.35" cy="34.95" r="2.51"/><rect class="cls-1" x="743.5" y="21.74" width="1.74" height="10.87"/><rect class="cls-1" x="744.97" y="25.49" width="1.74" height="2.8" transform="matrix(-0.6, -0.8, 0.8, -0.6, 1172.53, 639.2)"/><rect class="cls-1" x="742.01" y="25.49" width="1.74" height="2.8" transform="translate(274.98 604.52) rotate(-53.06)"/><rect class="cls-1" x="744.97" y="22.29" width="1.74" height="2.8" transform="translate(1175.09 634.08) rotate(-126.94)"/><rect class="cls-1" x="742.01" y="22.29" width="1.74" height="2.8" transform="translate(277.54 603.24) rotate(-53.06)"/><rect class="cls-1" x="743.52" y="37.1" width="1.74" height="10.87"/><rect class="cls-1" x="744.98" y="41.41" width="1.74" height="2.8" transform="translate(1228.27 -527.63) rotate(126.94)"/><rect class="cls-1" x="742.02" y="41.41" width="1.74" height="2.8" transform="matrix(0.6, 0.8, -0.8, 0.6, 330.7, -576.72)"/><rect class="cls-1" x="744.98" y="44.62" width="1.74" height="2.8" transform="translate(1230.83 -522.5) rotate(126.94)"/><rect class="cls-1" x="742.02" y="44.62" width="1.74" height="2.8" transform="translate(333.26 -575.44) rotate(53.06)"/><rect class="cls-1" x="751.03" y="29.53" width="1.74" height="10.87" transform="translate(786.86 -716.93) rotate(90)"/><rect class="cls-1" x="751.31" y="35.03" width="1.74" height="2.8" transform="translate(129.06 459.31) rotate(-36.94)"/><rect class="cls-1" x="751.31" y="32.07" width="1.74" height="2.8" transform="translate(171.07 -445.28) rotate(36.94)"/><rect class="cls-1" x="754.51" y="35.03" width="1.74" height="2.8" transform="translate(129.71 461.23) rotate(-36.94)"/><rect class="cls-1" x="754.51" y="32.07" width="1.74" height="2.8" transform="translate(171.71 -447.2) rotate(36.94)"/><rect class="cls-1" x="735.94" y="29.54" width="1.74" height="10.87" transform="translate(771.79 -701.84) rotate(90)"/><rect class="cls-1" x="735.66" y="35.04" width="1.74" height="2.8" transform="translate(1303.35 508.16) rotate(-143.06)"/><rect class="cls-1" x="735.66" y="32.09" width="1.74" height="2.8" transform="translate(1345.37 -382.35) rotate(143.06)"/><rect class="cls-1" x="732.46" y="35.04" width="1.74" height="2.8" transform="translate(1297.59 506.24) rotate(-143.06)"/><rect class="cls-1" x="732.46" y="32.09" width="1.74" height="2.8" transform="translate(1339.61 -380.42) rotate(143.06)"/><rect class="cls-1" x="738.19" y="34.83" width="1.74" height="10.87" transform="translate(244.94 -510.8) rotate(45)"/><rect class="cls-1" x="739.03" y="40.1" width="1.74" height="2.8" transform="translate(1478.31 -21.21) rotate(171.94)"/><rect class="cls-1" x="736.94" y="38.01" width="1.74" height="2.8" transform="translate(880.33 -685.58) rotate(98.06)"/><rect class="cls-1" x="736.77" y="42.37" width="1.74" height="2.8" transform="translate(1474.12 -16.38) rotate(171.94)"/><rect class="cls-1" x="734.67" y="40.28" width="1.74" height="2.8" transform="translate(879.99 -680.75) rotate(98.06)"/><rect class="cls-1" x="748.95" y="34.89" width="1.74" height="10.87" transform="translate(1308.53 -461.37) rotate(135)"/><rect class="cls-1" x="748.11" y="40.16" width="1.74" height="2.8" transform="translate(13.24 -104.66) rotate(8.06)"/><rect class="cls-1" x="750.2" y="38.07" width="1.74" height="2.8" transform="translate(684.78 -709.72) rotate(81.94)"/><rect class="cls-1" x="750.38" y="42.42" width="1.74" height="2.8" transform="translate(13.58 -104.96) rotate(8.06)"/><rect class="cls-1" x="752.47" y="40.33" width="1.74" height="2.8" transform="translate(688.97 -710.01) rotate(81.94)"/><rect class="cls-1" x="738.02" y="23.97" width="1.74" height="10.87" transform="translate(195.63 531.08) rotate(-45)"/><rect class="cls-1" x="738.85" y="26.77" width="1.74" height="2.8" transform="translate(1468.18 159.83) rotate(-171.94)"/><rect class="cls-1" x="736.76" y="28.86" width="1.74" height="2.8" transform="translate(811.15 764.84) rotate(-98.06)"/><rect class="cls-1" x="736.59" y="24.5" width="1.74" height="2.8" transform="matrix(-0.99, -0.14, 0.14, -0.99, 1463.99, 155)"/><rect class="cls-1" x="734.5" y="26.59" width="1.74" height="2.8" transform="translate(810.81 760.01) rotate(-98.06)"/><rect class="cls-1" x="748.89" y="24.13" width="1.74" height="10.87" transform="translate(1259.02 580.62) rotate(-135)"/><rect class="cls-1" x="748.06" y="26.93" width="1.74" height="2.8" transform="translate(3.43 105.34) rotate(-8.06)"/><rect class="cls-1" x="750.16" y="29.02" width="1.74" height="2.8" transform="translate(615.55 769.75) rotate(-81.94)"/><rect class="cls-1" x="750.32" y="24.66" width="1.74" height="2.8" transform="matrix(0.99, -0.14, 0.14, 0.99, 3.77, 105.64)"/><rect class="cls-1" x="752.41" y="26.75" width="1.74" height="2.8" transform="translate(619.73 770.03) rotate(-81.94)"/><circle class="cls-1" cx="519.41" cy="100.82" r="2.51"/><rect class="cls-1" x="518.56" y="87.61" width="1.74" height="10.87"/><rect class="cls-1" x="520.03" y="91.37" width="1.74" height="2.8" transform="matrix(-0.6, -0.8, 0.8, -0.6, 759.77, 564.87)"/><rect class="cls-1" x="517.07" y="91.37" width="1.74" height="2.8" transform="translate(132.55 451.02) rotate(-53.06)"/><rect class="cls-1" x="520.03" y="88.17" width="1.74" height="2.8" transform="matrix(-0.6, -0.8, 0.8, -0.6, 762.33, 559.74)"/><rect class="cls-1" x="517.07" y="88.17" width="1.74" height="2.8" transform="translate(135.11 449.74) rotate(-53.06)"/><rect class="cls-1" x="518.58" y="102.98" width="1.74" height="10.87"/><rect class="cls-1" x="520.04" y="107.29" width="1.74" height="2.8" transform="translate(920.81 -242.37) rotate(126.94)"/><rect class="cls-1" x="517.09" y="107.29" width="1.74" height="2.8" transform="matrix(0.6, 0.8, -0.8, 0.6, 293.58, -370.63)"/><rect class="cls-1" x="520.04" y="110.5" width="1.74" height="2.8" transform="translate(923.38 -237.24) rotate(126.94)"/><rect class="cls-1" x="517.09" y="110.5" width="1.74" height="2.8" transform="matrix(0.6, 0.8, -0.8, 0.6, 296.14, -369.35)"/><rect class="cls-1" x="526.09" y="95.41" width="1.74" height="10.87" transform="translate(627.8 -426.12) rotate(90)"/><rect class="cls-1" x="526.37" y="100.91" width="1.74" height="2.8" transform="translate(44.33 337.36) rotate(-36.94)"/><rect class="cls-1" x="526.37" y="97.95" width="1.74" height="2.8" transform="translate(165.51 -296.89) rotate(36.94)"/><rect class="cls-1" x="529.57" y="100.91" width="1.74" height="2.8" transform="translate(44.98 339.28) rotate(-36.94)"/><rect class="cls-1" x="529.57" y="97.95" width="1.74" height="2.8" transform="translate(166.15 -298.81) rotate(36.94)"/><rect class="cls-1" x="511" y="95.42" width="1.74" height="10.87" transform="translate(612.73 -411.02) rotate(90)"/><rect class="cls-1" x="510.72" y="100.92" width="1.74" height="2.8" transform="translate(859.03 491.53) rotate(-143.06)"/><rect class="cls-1" x="510.72" y="97.96" width="1.74" height="2.8" transform="translate(980.22 -128.64) rotate(143.06)"/><rect class="cls-1" x="507.52" y="100.92" width="1.74" height="2.8" transform="translate(853.26 489.6) rotate(-143.06)"/><rect class="cls-1" x="507.52" y="97.96" width="1.74" height="2.8" transform="translate(974.46 -126.72) rotate(143.06)"/><rect class="cls-1" x="513.25" y="100.71" width="1.74" height="10.87" transform="translate(225.64 -332.45) rotate(45)"/><rect class="cls-1" x="514.09" y="105.98" width="1.74" height="2.8" transform="translate(1039.89 141.45) rotate(171.94)"/><rect class="cls-1" x="512" y="103.89" width="1.74" height="2.8" transform="translate(689.06 -387.74) rotate(98.06)"/><rect class="cls-1" x="511.83" y="108.25" width="1.74" height="2.8" transform="translate(1035.7 146.28) rotate(171.94)"/><rect class="cls-1" x="509.74" y="106.15" width="1.74" height="2.8" transform="translate(688.72 -382.92) rotate(98.06)"/><rect class="cls-1" x="524.01" y="100.77" width="1.74" height="10.87" transform="translate(971.12 -189.85) rotate(135)"/><rect class="cls-1" x="523.17" y="106.03" width="1.74" height="2.8" transform="translate(20.25 -72.45) rotate(8.06)"/><rect class="cls-1" x="525.26" y="103.94" width="1.74" height="2.8" transform="translate(556.62 -430.37) rotate(81.94)"/><rect class="cls-1" x="525.44" y="108.3" width="1.74" height="2.8" transform="translate(20.59 -72.75) rotate(8.06)"/><rect class="cls-1" x="527.53" y="106.21" width="1.74" height="2.8" transform="translate(560.82 -430.66) rotate(81.94)"/><rect class="cls-1" x="513.08" y="89.84" width="1.74" height="10.87" transform="translate(83.16 391.32) rotate(-45)"/><rect class="cls-1" x="513.92" y="92.65" width="1.74" height="2.8" transform="translate(1011.29 259.37) rotate(-171.94)"/><rect class="cls-1" x="511.82" y="94.74" width="1.74" height="2.8" transform="translate(489.43 617.24) rotate(-98.06)"/><rect class="cls-1" x="511.65" y="90.38" width="1.74" height="2.8" transform="translate(1007.1 254.55) rotate(-171.94)"/><rect class="cls-1" x="509.56" y="92.47" width="1.74" height="2.8" transform="translate(489.09 612.42) rotate(-98.06)"/><rect class="cls-1" x="523.95" y="90" width="1.74" height="10.87" transform="translate(828.44 534.03) rotate(-135)"/><rect class="cls-1" x="523.12" y="92.81" width="1.74" height="2.8" transform="matrix(0.99, -0.14, 0.14, 0.99, -8.03, 74.44)"/><rect class="cls-1" x="525.22" y="94.9" width="1.74" height="2.8" transform="translate(356.94 603.67) rotate(-81.94)"/><rect class="cls-1" x="525.38" y="90.54" width="1.74" height="2.8" transform="matrix(0.99, -0.14, 0.14, 0.99, -7.69, 74.73)"/><rect class="cls-1" x="527.47" y="92.63" width="1.74" height="2.8" transform="translate(361.12 603.95) rotate(-81.94)"/><circle class="cls-1" cx="391.32" cy="79.43" r="2.51"/><rect class="cls-1" x="390.48" y="66.22" width="1.74" height="10.87"/><rect class="cls-1" x="391.94" y="69.97" width="1.74" height="2.8" transform="matrix(-0.6, -0.8, 0.8, -0.6, 571.81, 428.24)"/><rect class="cls-1" x="388.98" y="69.97" width="1.74" height="2.8" transform="translate(98.53 340.1) rotate(-53.06)"/><rect class="cls-1" x="391.94" y="66.77" width="1.74" height="2.8" transform="matrix(-0.6, -0.8, 0.8, -0.6, 574.37, 423.11)"/><rect class="cls-1" x="388.98" y="66.77" width="1.74" height="2.8" transform="translate(101.1 338.82) rotate(-53.06)"/><rect class="cls-1" x="390.49" y="81.58" width="1.74" height="10.87"/><rect class="cls-1" x="391.95" y="85.9" width="1.74" height="2.8" transform="translate(698.65 -174.24) rotate(126.94)"/><rect class="cls-1" x="389" y="85.9" width="1.74" height="2.8" transform="matrix(0.6, 0.8, -0.8, 0.6, 225.36, -276.79)"/><rect class="cls-1" x="391.95" y="89.1" width="1.74" height="2.8" transform="translate(701.21 -169.11) rotate(126.94)"/><rect class="cls-1" x="389" y="89.1" width="1.74" height="2.8" transform="matrix(0.6, 0.8, -0.8, 0.6, 227.92, -275.51)"/><rect class="cls-1" x="398" y="74.01" width="1.74" height="10.87" transform="translate(478.31 -319.42) rotate(90)"/><rect class="cls-1" x="398.28" y="79.51" width="1.74" height="2.8" transform="translate(31.49 256.09) rotate(-36.94)"/><rect class="cls-1" x="398.28" y="76.55" width="1.74" height="2.8" transform="translate(126.95 -224.21) rotate(36.94)"/><rect class="cls-1" x="401.48" y="79.51" width="1.74" height="2.8" transform="translate(32.13 258.02) rotate(-36.94)"/><rect class="cls-1" x="401.48" y="76.55" width="1.74" height="2.8" transform="translate(127.59 -226.14) rotate(36.94)"/><rect class="cls-1" x="382.91" y="74.03" width="1.74" height="10.87" transform="translate(463.24 -304.33) rotate(90)"/><rect class="cls-1" x="382.63" y="79.53" width="1.74" height="2.8" transform="translate(641.41 376.06) rotate(-143.06)"/><rect class="cls-1" x="382.63" y="76.57" width="1.74" height="2.8" transform="translate(736.89 -90.17) rotate(143.06)"/><rect class="cls-1" x="379.43" y="79.53" width="1.74" height="2.8" transform="translate(635.65 374.13) rotate(-143.06)"/><rect class="cls-1" x="379.43" y="76.57" width="1.74" height="2.8" transform="translate(731.13 -88.25) rotate(143.06)"/><rect class="cls-1" x="385.17" y="79.32" width="1.74" height="10.87" transform="translate(172.99 -248.15) rotate(45)"/><rect class="cls-1" x="386" y="84.59" width="1.74" height="2.8" transform="translate(781.98 116.84) rotate(171.94)"/><rect class="cls-1" x="383.91" y="82.49" width="1.74" height="2.8" transform="translate(521.82 -285.32) rotate(98.06)"/><rect class="cls-1" x="383.74" y="86.85" width="1.74" height="2.8" transform="translate(777.79 121.67) rotate(171.94)"/><rect class="cls-1" x="381.65" y="84.76" width="1.74" height="2.8" transform="translate(521.48 -280.49) rotate(98.06)"/><rect class="cls-1" x="395.92" y="79.37" width="1.74" height="10.87" transform="translate(737.33 -135.81) rotate(135)"/><rect class="cls-1" x="395.09" y="84.64" width="1.74" height="2.8" transform="translate(15.99 -54.7) rotate(8.06)"/><rect class="cls-1" x="397.18" y="82.55" width="1.74" height="2.8" transform="translate(425.32 -321.94) rotate(81.94)"/><rect class="cls-1" x="397.35" y="86.9" width="1.74" height="2.8" transform="translate(16.33 -54.99) rotate(8.06)"/><rect class="cls-1" x="399.44" y="84.81" width="1.74" height="2.8" transform="translate(429.51 -322.24) rotate(81.94)"/><rect class="cls-1" x="384.99" y="68.45" width="1.74" height="10.87" transform="translate(60.77 294.48) rotate(-45)"/><rect class="cls-1" x="385.83" y="71.25" width="1.74" height="2.8" transform="matrix(-0.99, -0.14, 0.14, -0.99, 759.38, 198.82)"/><rect class="cls-1" x="383.74" y="73.34" width="1.74" height="2.8" transform="translate(364.56 466.03) rotate(-98.06)"/><rect class="cls-1" x="383.56" y="68.98" width="1.74" height="2.8" transform="translate(755.19 194) rotate(-171.94)"/><rect class="cls-1" x="381.47" y="71.08" width="1.74" height="2.8" transform="translate(364.22 461.2) rotate(-98.06)"/><rect class="cls-1" x="395.86" y="68.61" width="1.74" height="10.87" transform="translate(624.91 406.93) rotate(-135)"/><rect class="cls-1" x="395.04" y="71.41" width="1.74" height="2.8" transform="matrix(0.99, -0.14, 0.14, 0.99, -6.3, 56.26)"/><rect class="cls-1" x="397.13" y="73.5" width="1.74" height="2.8" transform="translate(268.01 458.45) rotate(-81.94)"/><rect class="cls-1" x="397.29" y="69.14" width="1.74" height="2.8" transform="matrix(0.99, -0.14, 0.14, 0.99, -5.96, 56.55)"/><rect class="cls-1" x="399.38" y="71.24" width="1.74" height="2.8" transform="translate(272.19 458.74) rotate(-81.94)"/><circle class="cls-1" cx="757.32" cy="130.61" r="2.51"/><rect class="cls-1" x="756.48" y="117.4" width="1.74" height="10.87"/><rect class="cls-1" x="757.94" y="121.15" width="1.74" height="2.8" transform="matrix(-0.6, -0.8, 0.8, -0.6, 1116.84, 802.72)"/><rect class="cls-1" x="754.98" y="121.15" width="1.74" height="2.8" transform="translate(203.69 653.07) rotate(-53.06)"/><rect class="cls-1" x="757.94" y="117.95" width="1.74" height="2.8" transform="translate(1119.4 797.59) rotate(-126.94)"/><rect class="cls-1" x="754.98" y="117.95" width="1.74" height="2.8" transform="translate(206.25 651.79) rotate(-53.06)"/><rect class="cls-1" x="756.49" y="132.76" width="1.74" height="10.87"/><rect class="cls-1" x="757.96" y="137.08" width="1.74" height="2.8" transform="translate(1325.5 -384.85) rotate(126.94)"/><rect class="cls-1" x="755" y="137.08" width="1.74" height="2.8" transform="matrix(0.6, 0.8, -0.8, 0.6, 412.34, -548.91)"/><rect class="cls-1" x="757.96" y="140.28" width="1.74" height="2.8" transform="translate(1328.06 -379.73) rotate(126.94)"/><rect class="cls-1" x="755" y="140.28" width="1.74" height="2.8" transform="translate(414.9 -547.63) rotate(53.06)"/><rect class="cls-1" x="764" y="125.19" width="1.74" height="10.87" transform="translate(895.49 -634.25) rotate(90)"/><rect class="cls-1" x="764.28" y="130.69" width="1.74" height="2.8" transform="translate(74.18 486.3) rotate(-36.94)"/><rect class="cls-1" x="764.28" y="127.73" width="1.74" height="2.8" transform="translate(231.15 -433.88) rotate(36.94)"/><rect class="cls-1" x="767.48" y="130.69" width="1.74" height="2.8" transform="translate(74.83 488.23) rotate(-36.94)"/><rect class="cls-1" x="767.48" y="127.73" width="1.74" height="2.8" transform="translate(231.8 -435.8) rotate(36.94)"/><rect class="cls-1" x="748.92" y="125.21" width="1.74" height="10.87" transform="translate(880.42 -619.15) rotate(90)"/><rect class="cls-1" x="748.64" y="130.7" width="1.74" height="2.8" transform="translate(1269.21 688.08) rotate(-143.06)"/><rect class="cls-1" x="748.64" y="127.75" width="1.74" height="2.8" transform="translate(1426.2 -218.02) rotate(143.06)"/><rect class="cls-1" x="745.43" y="130.7" width="1.74" height="2.8" transform="translate(1263.45 686.16) rotate(-143.06)"/><rect class="cls-1" x="745.43" y="127.75" width="1.74" height="2.8" transform="translate(1420.44 -216.09) rotate(143.06)"/><rect class="cls-1" x="751.17" y="130.5" width="1.74" height="10.87" transform="translate(316.38 -491.96) rotate(45)"/><rect class="cls-1" x="752.01" y="135.76" width="1.74" height="2.8" transform="translate(1517.55 167.35) rotate(171.94)"/><rect class="cls-1" x="749.91" y="133.67" width="1.74" height="2.8" transform="translate(989.84 -589.34) rotate(98.06)"/><rect class="cls-1" x="749.74" y="138.03" width="1.74" height="2.8" transform="translate(1513.36 172.18) rotate(171.94)"/><rect class="cls-1" x="747.65" y="135.94" width="1.74" height="2.8" transform="translate(989.5 -584.51) rotate(98.06)"/><rect class="cls-1" x="761.92" y="130.55" width="1.74" height="10.87" transform="translate(1398.33 -307.24) rotate(135)"/><rect class="cls-1" x="761.09" y="135.82" width="1.74" height="2.8" transform="translate(26.78 -105.53) rotate(8.06)"/><rect class="cls-1" x="763.18" y="133.73" width="1.74" height="2.8" transform="translate(790.65 -640.32) rotate(81.94)"/><rect class="cls-1" x="763.35" y="138.08" width="1.74" height="2.8" transform="translate(27.12 -105.83) rotate(8.06)"/><rect class="cls-1" x="765.44" y="135.99" width="1.74" height="2.8" transform="translate(794.84 -640.62) rotate(81.94)"/><rect class="cls-1" x="750.99" y="119.63" width="1.74" height="10.87" transform="translate(131.78 568.28) rotate(-45)"/><rect class="cls-1" x="751.83" y="122.43" width="1.74" height="2.8" transform="translate(1480.58 352.02) rotate(-171.94)"/><rect class="cls-1" x="749.74" y="124.52" width="1.74" height="2.8" transform="translate(731.23 886.77) rotate(-98.06)"/><rect class="cls-1" x="749.56" y="120.16" width="1.74" height="2.8" transform="matrix(-0.99, -0.14, 0.14, -0.99, 1476.39, 347.2)"/><rect class="cls-1" x="747.47" y="122.26" width="1.74" height="2.8" transform="translate(730.89 881.94) rotate(-98.06)"/><rect class="cls-1" x="761.87" y="119.79" width="1.74" height="10.87" transform="translate(1213.53 753.1) rotate(-135)"/><rect class="cls-1" x="761.04" y="122.59" width="1.74" height="2.8" transform="translate(-9.86 108.11) rotate(-8.06)"/><rect class="cls-1" x="763.13" y="124.68" width="1.74" height="2.8" transform="translate(531.99 864.84) rotate(-81.94)"/><rect class="cls-1" x="763.29" y="120.32" width="1.74" height="2.8" transform="matrix(0.99, -0.14, 0.14, 0.99, -9.52, 108.4)"/><rect class="cls-1" x="765.39" y="122.41" width="1.74" height="2.8" transform="translate(536.17 865.12) rotate(-81.94)"/><circle class="cls-1" cx="318.54" cy="66.32" r="2.51"/><rect class="cls-1" x="317.69" y="53.11" width="1.74" height="10.87"/><rect class="cls-1" x="319.16" y="56.86" width="1.74" height="2.8" transform="matrix(-0.6, -0.8, 0.8, -0.6, 465.77, 349.07)"/><rect class="cls-1" x="316.2" y="56.86" width="1.74" height="2.8" transform="translate(79.97 276.69) rotate(-53.06)"/><rect class="cls-1" x="319.16" y="53.66" width="1.74" height="2.8" transform="matrix(-0.6, -0.8, 0.8, -0.6, 468.33, 343.94)"/><rect class="cls-1" x="316.2" y="53.66" width="1.74" height="2.8" transform="translate(82.53 275.41) rotate(-53.06)"/><rect class="cls-1" x="317.71" y="68.47" width="1.74" height="10.87"/><rect class="cls-1" x="319.17" y="72.78" width="1.74" height="2.8" transform="translate(571.65 -137.05) rotate(126.94)"/><rect class="cls-1" x="316.21" y="72.78" width="1.74" height="2.8" transform="matrix(0.6, 0.8, -0.8, 0.6, 185.83, -223.84)"/><rect class="cls-1" x="319.17" y="75.99" width="1.74" height="2.8" transform="translate(574.21 -131.93) rotate(126.94)"/><rect class="cls-1" x="316.21" y="75.99" width="1.74" height="2.8" transform="matrix(0.6, 0.8, -0.8, 0.6, 188.4, -222.56)"/><rect class="cls-1" x="325.21" y="60.9" width="1.74" height="10.87" transform="translate(392.41 -259.75) rotate(90)"/><rect class="cls-1" x="325.49" y="66.4" width="1.74" height="2.8" transform="translate(24.76 209.72) rotate(-36.94)"/><rect class="cls-1" x="325.49" y="63.44" width="1.74" height="2.8" transform="translate(104.46 -183.11) rotate(36.94)"/><rect class="cls-1" x="328.7" y="66.4" width="1.74" height="2.8" transform="translate(25.4 211.65) rotate(-36.94)"/><rect class="cls-1" x="328.7" y="63.44" width="1.74" height="2.8" transform="translate(105.1 -185.03) rotate(36.94)"/><rect class="cls-1" x="310.13" y="60.91" width="1.74" height="10.87" transform="translate(377.34 -244.65) rotate(90)"/><rect class="cls-1" x="309.85" y="66.41" width="1.74" height="2.8" transform="translate(518.33 308.73) rotate(-143.06)"/><rect class="cls-1" x="309.85" y="63.45" width="1.74" height="2.8" transform="translate(598.05 -70.03) rotate(143.06)"/><rect class="cls-1" x="306.65" y="66.41" width="1.74" height="2.8" transform="translate(512.57 306.8) rotate(-143.06)"/><rect class="cls-1" x="306.65" y="63.45" width="1.74" height="2.8" transform="translate(592.29 -68.1) rotate(143.06)"/><rect class="cls-1" x="312.38" y="66.2" width="1.74" height="10.87" transform="translate(142.4 -200.52) rotate(45)"/><rect class="cls-1" x="313.22" y="71.47" width="1.74" height="2.8" transform="translate(635.29 100.96) rotate(171.94)"/><rect class="cls-1" x="311.13" y="69.38" width="1.74" height="2.8" transform="translate(425.84 -228.2) rotate(98.06)"/><rect class="cls-1" x="310.95" y="73.74" width="1.74" height="2.8" transform="translate(631.1 105.78) rotate(171.94)"/><rect class="cls-1" x="308.86" y="71.65" width="1.74" height="2.8" transform="translate(425.5 -223.38) rotate(98.06)"/><rect class="cls-1" x="323.14" y="66.26" width="1.74" height="10.87" transform="translate(603.81 -106.73) rotate(135)"/><rect class="cls-1" x="322.3" y="71.53" width="1.74" height="2.8" transform="translate(13.43 -44.61) rotate(8.06)"/><rect class="cls-1" x="324.39" y="69.43" width="1.74" height="2.8" transform="translate(349.76 -261.15) rotate(81.94)"/><rect class="cls-1" x="324.57" y="73.79" width="1.74" height="2.8" transform="translate(13.77 -44.91) rotate(8.06)"/><rect class="cls-1" x="326.66" y="71.7" width="1.74" height="2.8" transform="translate(353.95 -261.45) rotate(81.94)"/><rect class="cls-1" x="312.21" y="55.34" width="1.74" height="10.87" transform="translate(48.73 239.18) rotate(-45)"/><rect class="cls-1" x="313.04" y="58.14" width="1.74" height="2.8" transform="translate(616.37 162.52) rotate(-171.94)"/><rect class="cls-1" x="310.95" y="60.23" width="1.74" height="2.8" transform="translate(294.55 379.01) rotate(-98.06)"/><rect class="cls-1" x="310.78" y="55.87" width="1.74" height="2.8" transform="translate(612.18 157.69) rotate(-171.94)"/><rect class="cls-1" x="308.69" y="57.96" width="1.74" height="2.8" transform="translate(294.21 374.18) rotate(-98.06)"/><rect class="cls-1" x="323.08" y="55.49" width="1.74" height="10.87" transform="translate(509.93 333.08) rotate(-135)"/><rect class="cls-1" x="322.25" y="58.3" width="1.74" height="2.8" transform="matrix(0.99, -0.14, 0.14, 0.99, -5.18, 45.92)"/><rect class="cls-1" x="324.34" y="60.39" width="1.74" height="2.8" transform="translate(218.42 375.11) rotate(-81.94)"/><rect class="cls-1" x="324.51" y="56.03" width="1.74" height="2.8" transform="matrix(0.99, -0.14, 0.14, 0.99, -4.84, 46.21)"/><rect class="cls-1" x="326.6" y="58.12" width="1.74" height="2.8" transform="translate(222.6 375.4) rotate(-81.94)"/></g></g></svg>